Coordinates
version=1
nRows=16
nColumns=22
inDegrees=yes

Units are S.I. units (second, meters, Newtons, ...)
If the header above contains a line with 'inDegrees', this indicates whether rotational values are in degrees (yes) or radians (no).

endheader
time	pelvis_tilt	pelvis_list	pelvis_rotation	pelvis_tx	pelvis_ty	pelvis_tz	hip_flexion_r	hip_adduction_r	hip_rotation_r	knee_angle_r	ankle_angle_r	subtalar_angle_r	hip_flexion_l	hip_adduction_l	hip_rotation_l	knee_angle_l	ankle_angle_l	subtalar_angle_l	lumbar_extension	lumbar_bending	lumbar_rotation
      2.73000000	     -6.79093683	     -6.95029571	    -23.85773876	     -0.13638326	      0.85497865	      0.39265660	     -7.59703386	      5.81717549	      1.07422164	    -28.66438996	     10.02564740	     20.83958100	     33.00635914	    -15.82318169	    -37.35366030	    -31.87539799	      8.31496875	    -16.71142146	     -0.43219856	      1.25470810	     21.92702956
      2.74000000	     -6.85277493	     -7.37520594	    -23.13756968	     -0.12720983	      0.85663869	      0.39320279	     -6.99470388	      6.00410145	      1.54790031	    -30.35821805	      7.56772510	     23.57556218	     32.83377857	    -15.75327380	    -36.13182397	    -32.30309477	      8.70502550	    -16.70798693	     -0.44472072	      1.32821792	     21.77018841
      2.75000000	     -6.97028623	     -7.91003530	    -22.45509134	     -0.11819050	      0.85826773	      0.39358721	     -6.23048657	      6.29522581	      2.10723629	    -32.16982199	      5.05809851	     26.20450908	     32.65127881	    -15.83028925	    -35.03223885	    -32.70086381	      9.18203312	    -16.65740797	     -0.44761835	      1.57828246	     21.67305222
      2.76000000	     -7.10669085	     -8.47867136	    -21.83506219	     -0.10935223	      0.85990996	      0.39384524	     -5.32052166	      6.61096230	      2.79911564	    -34.07853005	      2.58272231	     28.67197484	     32.40044660	    -15.96794129	    -34.09386200	    -32.98549442	      9.65272978	    -16.55135955	     -0.44106480	      1.90324226	     21.68091033
      2.77000000	     -7.26266663	     -9.06204241	    -21.28262280	     -0.10071856	      0.86148129	      0.39394703	     -4.24773114	      6.92865069	      3.56587979	    -36.10895302	      0.24372850	     30.79008349	     32.10873595	    -16.17190898	    -33.34819331	    -33.20945996	     10.15329078	    -16.38018517	     -0.42006726	      2.29584920	     21.78845750
      2.78000000	     -7.41842664	     -9.61814314	    -20.79391517	     -0.09231187	      0.86296293	      0.39392125	     -3.01257588	      7.19814663	      4.34259000	    -38.27374759	     -1.89364203	     32.46066404	     31.77495803	    -16.40245353	    -32.80061406	    -33.38426787	     10.67391115	    -16.14919957	     -0.38952773	      2.69588133	     21.98920069
      2.79000000	     -7.54929823	    -10.10031344	    -20.35212068	     -0.08412271	      0.86433918	      0.39373416	     -1.62610363	      7.34956261	      5.04904812	    -40.57396450	     -3.79045376	     33.62763365	     31.39246110	    -16.59484988	    -32.44271553	    -33.50905157	     11.19386533	    -15.87620073	     -0.35999764	      3.04450460	     22.26523598
      2.80000000	     -7.62472954	    -10.47891982	    -19.91281519	     -0.07609383	      0.86566478	      0.39332671	     -0.14754155	      7.33538914	      5.65081025	    -42.93825082	     -5.47432966	     34.32712998	     30.93610118	    -16.66325494	    -32.18827504	    -33.54382985	     11.67602886	    -15.57857331	     -0.34748407	      3.29445480	     22.57949102
      2.81000000	     -7.63698064	    -10.75373306	    -19.46125449	     -0.06821350	      0.86692644	      0.39266556	      1.40481558	      7.13156984	      6.10489982	    -45.35064148	     -6.92341325	     34.50898983	     30.41449818	    -16.60457467	    -32.04215954	    -33.51401474	     12.11193361	    -15.34315935	     -0.36345998	      3.44472491	     22.91712576
      2.82000000	     -7.62343585	    -10.94174453	    -18.92346336	     -0.06043839	      0.86804907	      0.39162459	      3.02151834	      6.75416171	      6.37642338	    -47.73626201	     -8.12869034	     34.35168556	     29.90745510	    -16.38875505	    -31.84306820	    -33.43543085	     12.53399394	    -15.06398396	     -0.36730483	      3.52921000	     23.19242346
      2.83000000	     -7.55625777	    -11.08010325	    -18.28567360	     -0.05271818	      0.86913107	      0.39021997	      4.61921625	      6.23610870	      6.51132620	    -50.02663632	     -9.10282386	     33.43253017	     29.37394117	    -16.03872508	    -31.56921707	    -33.30432936	     12.94090930	    -14.76456728	     -0.39538371	      3.57185048	     23.39575686
      2.84000000	     -7.42785750	    -11.16296215	    -17.54210403	     -0.04503075	      0.87019773	      0.38841702	      6.16162550	      5.56927835	      6.57394999	    -52.18901934	     -9.78623241	     32.18370159	     28.79789330	    -15.54290591	    -31.24203109	    -33.10388008	     13.28819453	    -14.59580716	     -0.45294197	      3.56561205	     23.53708441
      2.85000000	     -7.25731994	    -11.22706093	    -16.67092651	     -0.03735666	      0.87125470	      0.38619692	      7.61576041	      4.82507961	      6.62563854	    -54.17250371	    -10.15805395	     30.54933672	     28.19516450	    -14.92256751	    -30.77796148	    -32.82412547	     13.61977595	    -14.48035857	     -0.52724087	      3.55680805	     23.58693871
      2.86000000	     -7.01706330	    -11.32232081	    -15.63910434	     -0.02967361	      0.87234738	      0.38353389	      8.92369104	      4.04731527	      6.63318063	    -55.95744065	    -10.31381456	     28.53326300	     27.54815017	    -14.23789174	    -30.18991607	    -32.51297434	     13.89181157	    -14.41713694	     -0.66249907	      3.59089210	     23.50685199
      2.87000000	     -6.72788733	    -11.42105116	    -14.47058854	     -0.02199223	      0.87345958	      0.38046427	     10.09241144	      3.26157045	      6.70924036	    -57.53722974	    -10.21675080	     26.28933418	     26.85085220	    -13.46330006	    -29.46102722	    -32.11822061	     14.13760696	    -14.38973959	     -0.82291196	      3.64704400	     23.31130333
      2.88000000	     -6.36733052	    -11.56483823	    -13.13671662	     -0.01433166	      0.87457680	      0.37697343	     11.08836102	      2.50154971	      6.78708047	    -58.92013906	     -9.94135801	     23.84958111	     26.10655429	    -12.66766057	    -28.61212913	    -31.71724112	     14.38670834	    -14.38867062	     -1.04526031	      3.76732339	     22.98540227
